<?xml version="1.0" encoding="utf-8"?>
<svg viewBox="0 0 122.88 101.37" style="enable-background:new 0 0 122.88 101.37" xmlns="http://www.w3.org/2000/svg">
  <ellipse style="fill: rgb(21, 163, 98); opacity: 0.85; stroke: rgba(2, 2, 2, 0.3);" cx="61.452" cy="50.509" rx="48.901" ry="48.901"/>
  <g style="" transform="matrix(0.64233, 0, 0, 0.608528, 23.659487, 20.292688)">
    <path d="M 9.854 71.756 L 10.164 16.836 L 3.964 16.836 L 3.964 86.716 C 12.484 84.516 21.034 83.116 29.644 83.056 C 37.594 83.006 45.544 84.116 53.514 86.816 C 48.564 82.806 43.044 79.856 37.154 77.936 C 29.734 75.516 21.714 74.716 13.494 75.416 C 11.634 75.566 10.014 74.186 9.854 72.336 C 9.834 72.136 9.834 71.946 9.854 71.756 L 9.854 71.756 Z M 100.834 13.966 C 100.814 13.806 100.794 13.636 100.794 13.456 C 100.794 13.286 100.804 13.116 100.834 12.946 L 100.834 1.826 C 93.034 1.086 84.994 1.946 77.974 4.606 C 71.414 7.096 65.754 11.186 62.074 17.046 L 62.074 80.386 C 67.794 76.566 73.644 73.426 79.654 71.286 C 86.504 68.846 93.544 67.686 100.834 68.266 L 100.834 13.966 L 100.834 13.966 Z M 107.584 10.086 L 116.724 10.086 C 118.584 10.086 120.094 11.596 120.094 13.456 L 120.094 91.116 C 120.094 92.976 118.584 94.486 116.724 94.486 C 116.344 94.486 115.974 94.426 115.634 94.306 C 106.234 91.616 96.894 89.826 87.644 89.766 C 78.624 89.706 69.614 91.296 60.564 95.286 C 60.004 95.656 59.334 95.856 58.644 95.846 C 57.964 95.856 57.294 95.656 56.724 95.286 C 47.684 91.286 38.664 89.706 29.644 89.766 C 20.394 89.826 11.064 91.616 1.654 94.306 C 1.314 94.426 0.944 94.486 0.564 94.486 C -1.276 94.496 -2.786 92.986 -2.786 91.126 L -2.786 13.456 C -2.786 11.596 -1.276 10.086 0.584 10.086 L 10.194 10.086 L 10.254 -1.174 C 10.264 -2.794 11.404 -4.134 12.934 -4.454 L 12.934 -4.454 C 21.804 -6.304 32.584 -5.844 42.034 -2.224 C 48.564 0.276 54.494 4.266 58.824 10.026 C 63.194 4.656 69.034 0.796 75.604 -1.694 C 84.584 -5.104 94.944 -5.924 104.694 -4.494 C 106.374 -4.254 107.574 -2.804 107.574 -1.164 L 107.574 -1.164 L 107.574 10.086 L 107.584 10.086 Z M 65.344 86.306 C 72.794 83.966 80.234 83.006 87.674 83.046 C 96.284 83.096 104.834 84.506 113.354 86.706 L 113.354 16.836 L 107.584 16.836 L 107.584 72.056 C 107.584 73.916 106.074 75.426 104.214 75.426 C 103.944 75.426 103.684 75.396 103.434 75.336 C 96.054 74.176 88.904 75.136 81.924 77.626 C 76.304 79.636 70.784 82.636 65.344 86.306 L 65.344 86.306 Z M 55.334 79.736 L 55.334 16.946 C 51.804 10.716 46.094 6.546 39.644 4.076 C 32.334 1.276 24.124 0.646 16.964 1.666 L 16.584 68.476 C 24.394 68.196 32.034 69.186 39.224 71.536 C 44.944 73.396 50.364 76.126 55.334 79.736 L 55.334 79.736 Z"/>
  </g>
</svg>